<svg width="4008" height="14" viewBox="0 0 4008 14" fill="none" xmlns="http://www.w3.org/2000/svg">
<path d="M3811 0.0103445C3815.78 -0.0736132 3822.52 0.380353 3828.15 0.404266C3851.75 0.509245 3860.5 0.823934 3881.86 1.00241C3913.52 1.26752 4007.5 0.670855 4007.5 3.82471C4007.5 3.82479 4007.5 3.82487 4007.5 3.82495C4007.5 3.85587 4007.49 3.88715 4007.47 3.9188C4007.14 4.51964 3999.15 5.17557 3997.96 5.85508C3996.78 6.53486 3997.67 10.9233 3986.31 11.17C3969.85 11.4952 3930.37 10.3699 3921.59 10.4198C3915.59 10.4542 3908.2 10.8531 3900.52 10.9239C3875.78 11.1522 3862.83 10.8605 3840.53 11.9442C3831.62 11.3731 3822.7 10.802 3813.78 10.2309C3802.15 10.4957 3784.51 9.74257 3777.44 9.78405C3771.64 9.81817 3768.25 10.2698 3762.2 10.2908C3755.42 10.3169 3745.01 9.8294 3732.68 9.90282C3712.47 10.0209 3708.87 11.199 3696.74 11.3486C3684.16 11.5034 3664.6 10.8631 3648.55 11.2777C3646.54 11.4073 3644.53 11.5369 3642.52 11.6665C3643.96 11.9596 3645.4 12.2527 3646.84 12.5458C3638.76 12.6822 3635.28 12.0816 3627.86 12.0707C3619.12 12.0576 3614.66 12.627 3608.78 12.6244C3603.96 12.6217 3597.43 12.1651 3591.18 12.1937C3582.07 12.2331 3584.07 12.8924 3579.16 13.0157C3577.21 13.0637 3541.06 13.4275 3539.02 13.4327C3523.51 13.4587 3522.16 12.5563 3509.79 12.4774C3475.49 12.2622 3440.27 12.9914 3408.54 13.267C3394.37 13.3903 3379.59 13.3378 3365.46 13.1935C3387.71 10.8839 3338.47 9.08649 3356.89 12.7004C3341.17 12.1863 3330.02 13.1619 3315.12 12.9969C3305.48 12.8893 3298.81 12.3882 3285.05 12.4014C3260.63 12.4278 3233.92 13.8522 3226.9 11.2777C3198.23 11.7316 3173.4 10.7977 3163.07 13.0704C3155.68 13.2093 3136.74 11.8555 3128.45 11.6716C3120.6 11.4984 3060.44 10.8871 3050.6 10.853C3040.76 10.8189 3023.53 10.7818 3015.24 10.9812C3004.83 11.2279 2997.55 13.5849 2979.01 10.8291C2957.45 11.0521 2949.77 10.9732 2929.72 10.6531C2926.09 10.5952 2925.68 10.186 2923.56 10.1857C2919.19 10.1857 2911.76 10.488 2903.96 10.5249C2891.14 10.5853 2883.82 9.72437 2885.25 11.0393C2876.8 11.2598 2868.35 11.4802 2859.89 11.7007C2856.93 11.4469 2853.96 11.1931 2850.99 10.9393C2846.47 11.2159 2841.95 11.4925 2837.43 11.769C2842.74 9.86626 2810.93 10.9891 2821.26 12.0809C2804.87 11.6873 2788.48 11.2937 2772.1 10.9C2774.38 8.73745 2736.11 10.6505 2739.33 11.8263C2737.46 11.8246 2735.58 11.8229 2733.71 11.8212C2717.29 11.2464 2702.22 11.7165 2682.21 11.3307C2662.2 10.9449 2664.07 10.7343 2657.99 9.73962C2653.28 9.79658 2648.57 9.85355 2643.86 9.91051C2619.16 12.6375 2623.52 7.91612 2581.22 10.0079C2567.7 8.29406 2534.38 9.19431 2512.29 9.71398C2509.72 9.77434 2509.67 10.107 2506.25 10.2096C2497.88 10.4563 2476.52 10.0286 2477.25 11.1017C2469.85 10.7912 2462.46 10.4807 2455.06 10.1703C2449.02 10.3654 2442.98 10.5605 2436.93 10.7556C2436.96 11.0906 2437 11.4255 2437.03 11.7605C2424.86 10.6189 2405.73 11.0576 2396.3 10.7847C2394.42 10.7293 2394.02 10.2673 2388.18 10.1412C2381.36 9.99163 2368.65 10.1284 2360.53 9.984C2357.37 10.4958 2354.21 11.0077 2351.05 11.5195C2336.52 11.7971 2331.41 10.4461 2322.87 10.3412C2321.34 10.3229 2293.31 10.42 2291.8 10.4488C2279.43 10.6775 2282.93 11.8284 2247.17 11.5819C2240.8 11.5373 2235.65 11.139 2229.9 11.123C2219.73 11.0942 2189.09 11.9974 2186.68 12.832C2174.35 11.7874 2141.35 12.2144 2131.63 11.9126C2128.7 11.8198 2128.03 11.1544 2119.02 11.0128C2111.71 10.8973 2092.88 11.4301 2083.61 11.3409C2073.77 11.2438 2070.26 10.6849 2065.85 10.6454C2061.68 10.6086 2057.84 11.0599 2052.16 11.0572C2044.45 11.0504 2037.05 10.9088 2030 10.7501C2020.86 10.5442 2012.3 10.3094 2004.39 10.3019C1984.14 10.2809 1966.24 11.6168 1949.3 12.21C1945.09 12.1233 1940.96 11.8366 1936.55 11.834C1881.99 11.792 1820.44 11.5458 1765.72 11.2598C1740.32 11.1284 1677.15 9.315 1694.01 12.3407C1685.18 12.8706 1620.99 11.6507 1608.78 11.6323C1596.58 11.6141 1586.9 12.1567 1577.31 12.1647C1548.35 12.1883 1527.96 11.7973 1492.72 12.2698C1483.62 12.3933 1473.87 13.036 1468.48 13.0286C1461.98 13.0181 1454.99 12.3964 1446.58 12.3569C1426.53 12.2677 1389.17 12.4722 1369.93 12.3646C1366.42 12.3436 1365.19 11.7978 1360.16 11.6272C1340.6 10.9606 1318.68 11.0184 1322.56 12.7611C1297.49 11.7717 1274.29 12.6742 1251.06 12.7295C1201.93 12.8423 1112.44 12.4356 1069.64 13.1678C1042.66 13.6298 1043.35 14.4114 1003.62 13.7369C994.796 13.5874 986.016 13.3856 975.318 13.2072C950.245 12.7872 927.242 11.3433 908.13 13.0833C880.282 12.632 858.103 12.952 837.441 11.464C835.005 11.8209 832.57 12.1778 830.134 12.5347C826.72 12.5435 823.305 12.5523 819.891 12.5612C818.826 12.2208 817.761 11.8804 816.696 11.54C792.237 11.4484 761.207 12.8474 740.503 12.8372C705.791 12.8214 616.386 12.2779 583.471 11.8186C565.997 11.5747 565.056 12.3037 555.052 10.8052C551.143 10.9094 547.235 11.0137 543.326 11.1179C540.88 11.446 538.434 11.7742 535.988 12.1023C513.569 12.1154 486.978 11.6057 465.62 11.611C426.702 11.6215 368.262 12.5245 329.18 11.9314C319.381 11.7818 307.131 11.1051 297.535 11.1128C283.568 11.1233 280.174 12.2462 262.45 12.2672C231.904 12.3013 175.016 10.9968 146.144 11.0966C137.568 11.1254 133.567 11.5433 127.646 11.5879C102.816 11.7795 82.4314 11.7455 58.6231 12.3911C33.059 11.315 35.2675 9.92606 27.345 8.52452C21.3409 7.46672 2.93028 5.01528 0.316799 4.08885C-1.51901 3.43797 5.33531 2.6007 2.76279 1.88425C33.3907 1.3121 46.2581 1.94196 71.1282 2.9498C117.057 2.90964 162.985 2.86948 208.914 2.82932C213.092 3.22039 217.271 3.61147 221.449 4.00254C221.449 4.0034 221.449 4.00425 221.449 4.0051C239.088 4.45643 246.563 3.44929 256.075 3.22068C347.144 1.03176 526.386 2.74496 626.643 2.99167C648.247 3.04415 718.525 2.51718 733.349 3.15232C737.187 3.31773 738.255 3.92076 742.338 3.947C778.819 3.5884 815.3 3.22979 851.781 2.87119C926.799 3.80817 1004.36 3.03434 1079.95 2.88999C1284.46 2.49893 1486.93 2.02359 1688.09 2.16794C1726.97 2.19681 1776.31 1.74502 1814.37 2.03635C1830.25 2.15714 1836.87 3.12552 1857.74 2.40378C1857.96 2.66469 1858.18 2.92559 1858.4 3.1865C1876.61 2.87152 1888.24 2.27786 1908.66 2.2175C1925.85 2.16764 1971.34 2.12889 1986.54 2.22861C1994.42 2.27847 1991.48 2.766 1998.83 2.76353C2006.02 2.75902 2017.9 2.53641 2030 2.34677C2039.04 2.20499 2048.21 2.08165 2055.64 2.08164C2071.36 2.08164 2097.86 2.64323 2109.95 2.56186C2153.48 2.27315 2200.9 1.4407 2247.29 1.66379C2260.11 1.72691 2276.59 2.35904 2280.6 2.3414C2288.44 2.30467 2290.78 1.69061 2296.05 1.61167C2322.79 1.21275 2364.49 1.94246 2390.7 1.97141C2476.14 2.06589 2566.64 1.79788 2651.71 1.91074C2705.45 1.98159 2794.76 1.87353 2844.37 2.33542C2855.07 2.43516 2852.22 3.10789 2861.21 3.10789C2871.17 3.10774 2876.56 2.65329 2881.22 2.61655C2913.44 2.35933 2984.58 1.89995 3015 2.36448C3020.79 2.45367 3025 2.98077 3028.47 2.97886C3030.22 2.97886 3034.19 2.61914 3039.7 2.58237C3088.38 2.25692 3123.87 2.46671 3171.57 2.59006C3262.92 2.82363 3368.77 2.15442 3464.74 2.51658C3485.65 2.59531 3499.99 3.63792 3502.93 3.62742C3509.38 3.60639 3513.51 2.90513 3526.58 2.73191C3570.02 2.16255 3628.54 2.91086 3669.87 2.5593C3690.28 2.3861 3718.34 1.4959 3738.43 1.29892C3754.48 1.14147 3792.38 1.49066 3799.49 1.09982C3803.81 0.863698 3805.82 0.105288 3811 0.0103445ZM3270.39 11.816C3273.25 10.6035 3243.2 11.6112 3254.48 12.2621C3257.01 12.4086 3269.65 12.1308 3270.39 11.816ZM1863.53 9.71056C1863.81 10.0569 1864.08 10.4033 1864.36 10.7496C1868.3 10.6055 1872.25 10.4614 1876.19 10.3173C1873.97 10.109 1871.76 9.90083 1869.54 9.69262C1867.54 9.6986 1865.54 9.70458 1863.53 9.71056Z" fill="white"/>
</svg>
